<?xml version="1.0" encoding="utf-8"?>
<svg version="1.1" id="Ebene_1" xmlns="http://www.w3.org/2000/svg" xmlns:xlink="http://www.w3.org/1999/xlink" x="0px" y="0px"
	 width="673.667px" height="127.5px" viewBox="0 0 673.667 127.5" enable-background="new 0 0 673.667 127.5" xml:space="preserve">
<g>
	<path fill="#757575" d="M161.84,82.469h-30.952l-6.952,19.333H113.89l28.212-73.88h8.523l28.264,73.88h-9.996L161.84,82.469z
		 M133.831,74.503h25.117l-12.583-34.556L133.831,74.503z"/>
	<path fill="#757575" d="M216.509,96.372c-3.653,4.297-9.016,6.444-16.085,6.444c-5.853,0-10.31-1.699-13.37-5.1
		c-3.063-3.399-4.609-8.431-4.644-15.096V46.899h9.388v35.469c0,8.321,3.382,12.482,10.148,12.482c7.171,0,11.94-2.672,14.309-8.018
		V46.899h9.387v54.902h-8.93L216.509,96.372z"/>
	<path fill="#757575" d="M234.074,73.894c0-8.423,1.996-15.196,5.988-20.321c3.99-5.125,9.217-7.688,15.68-7.688
		c6.426,0,11.518,2.199,15.273,6.596V23.863h9.387v77.938h-8.627l-0.457-5.886c-3.754,4.601-8.98,6.9-15.678,6.9
		c-6.361,0-11.545-2.604-15.553-7.814c-4.008-5.209-6.014-12.008-6.014-20.397V73.894z M243.463,74.959
		c0,6.225,1.285,11.097,3.855,14.614c2.57,3.519,6.123,5.277,10.656,5.277c5.953,0,10.301-2.672,13.041-8.018V61.614
		c-2.809-5.175-7.123-7.763-12.939-7.763c-4.602,0-8.188,1.775-10.758,5.327S243.463,67.991,243.463,74.959z"/>
	<path fill="#757575" d="M290.994,32.336c0-1.521,0.465-2.807,1.395-3.855s2.309-1.573,4.137-1.573c1.826,0,3.213,0.524,4.16,1.573
		s1.42,2.334,1.42,3.855c0,1.523-0.473,2.791-1.42,3.807c-0.947,1.014-2.334,1.521-4.16,1.521c-1.828,0-3.207-0.508-4.137-1.521
		C291.459,35.127,290.994,33.859,290.994,32.336z M301.143,101.802h-9.387V46.899h9.387V101.802z"/>
	<path fill="#757575" d="M309.57,73.843c0-5.378,1.057-10.216,3.172-14.512c2.113-4.296,5.057-7.611,8.828-9.945
		s8.076-3.501,12.914-3.501c7.475,0,13.523,2.588,18.141,7.764s6.926,12.06,6.926,20.651v0.659c0,5.346-1.023,10.141-3.07,14.386
		c-2.047,4.246-4.973,7.553-8.777,9.92c-3.807,2.368-8.18,3.552-13.117,3.552c-7.443,0-13.473-2.588-18.09-7.764
		c-4.617-5.175-6.926-12.025-6.926-20.55V73.843z M319.008,74.959c0,6.09,1.412,10.979,4.236,14.665
		c2.824,3.688,6.605,5.53,11.342,5.53c4.77,0,8.559-1.868,11.365-5.606c2.809-3.737,4.213-8.973,4.213-15.705
		c0-6.021-1.43-10.9-4.289-14.639c-2.857-3.737-6.654-5.606-11.391-5.606c-4.635,0-8.373,1.844-11.215,5.53
		C320.43,62.815,319.008,68.093,319.008,74.959z"/>
	<path fill="#757575" d="M378.869,72.879v28.923h-9.742v-73.88h27.248c8.084,0,14.418,2.064,19.002,6.19
		c4.584,4.128,6.877,9.591,6.877,16.39c0,7.172-2.242,12.694-6.725,16.567c-4.482,3.874-10.9,5.81-19.256,5.81H378.869z
		 M378.869,64.912h17.506c5.209,0,9.201-1.228,11.975-3.685c2.773-2.456,4.16-6.007,4.16-10.649c0-4.405-1.387-7.93-4.16-10.572
		c-2.773-2.644-6.58-4.016-11.416-4.117h-18.064V64.912z"/>
	<path fill="#757575" d="M439.088,101.802h-9.387V23.863h9.387V101.802z"/>
	<path fill="#757575" d="M483.588,101.802c-0.541-1.082-0.982-3.011-1.32-5.784c-4.363,4.533-9.572,6.799-15.627,6.799
		c-5.414,0-9.854-1.53-13.32-4.592c-3.469-3.062-5.201-6.943-5.201-11.646c0-5.716,2.174-10.156,6.52-13.319
		c4.348-3.163,10.461-4.744,18.344-4.744h9.133v-4.313c0-3.28-0.98-5.894-2.941-7.839c-1.963-1.945-4.855-2.918-8.678-2.918
		c-3.35,0-6.156,0.846-8.424,2.537c-2.266,1.691-3.398,3.738-3.398,6.139h-9.438c0-2.739,0.971-5.386,2.916-7.94
		c1.945-2.554,4.584-4.575,7.916-6.063s6.994-2.232,10.986-2.232c6.324,0,11.281,1.582,14.867,4.744
		c3.586,3.164,5.445,7.519,5.582,13.066v25.269c0,5.041,0.643,9.05,1.928,12.026v0.812H483.588z M468.01,94.647
		c2.943,0,5.734-0.762,8.373-2.283c2.639-1.522,4.549-3.502,5.732-5.938V75.162h-7.357c-11.5,0-17.252,3.366-17.252,10.098
		c0,2.943,0.98,5.244,2.943,6.901C462.41,93.818,464.932,94.647,468.01,94.647z"/>
	<path fill="#757575" d="M518.725,88.051l12.787-41.151h10.047l-22.072,63.376c-3.418,9.134-8.846,13.7-16.289,13.7l-1.775-0.152
		l-3.5-0.659v-7.611l2.537,0.203c3.178,0,5.656-0.644,7.434-1.929c1.775-1.285,3.238-3.637,4.389-7.053l2.08-5.582l-19.586-54.293
		h10.25L518.725,88.051z"/>
	<path fill="#757575" d="M567.361,102.816c-7.441,0-13.496-2.443-18.164-7.332c-4.67-4.888-7.004-11.425-7.004-19.611v-1.726
		c0-5.446,1.041-10.309,3.121-14.588s4.99-7.628,8.729-10.047c3.736-2.419,7.789-3.628,12.152-3.628
		c7.137,0,12.686,2.352,16.643,7.053c3.959,4.702,5.938,11.435,5.938,20.195v3.907h-37.193c0.135,5.412,1.715,9.785,4.744,13.116
		c3.027,3.333,6.875,4.998,11.543,4.998c3.314,0,6.123-0.676,8.424-2.029c2.299-1.353,4.313-3.146,6.037-5.379l5.734,4.466
		C583.463,99.282,576.563,102.816,567.361,102.816z M566.195,53.598c-3.789,0-6.969,1.379-9.539,4.135
		c-2.572,2.758-4.162,6.622-4.771,11.595h27.502v-0.71c-0.27-4.77-1.555-8.466-3.855-11.088
		C573.23,54.908,570.119,53.598,566.195,53.598z"/>
	<path fill="#757575" d="M623.23,55.322c-1.42-0.236-2.959-0.355-4.617-0.355c-6.156,0-10.334,2.623-12.533,7.865v38.97h-9.387
		V46.899h9.133l0.152,6.343c3.078-4.904,7.441-7.357,13.092-7.357c1.826,0,3.213,0.236,4.16,0.71V55.322z"/>
	<path fill="#757575" d="M660.406,87.239c0-2.537-0.957-4.508-2.867-5.912c-1.912-1.403-5.244-2.613-9.996-3.628
		c-4.754-1.015-8.525-2.232-11.316-3.653s-4.854-3.111-6.189-5.074c-1.338-1.961-2.004-4.296-2.004-7.002
		c0-4.499,1.902-8.304,5.707-11.417c3.807-3.111,8.668-4.668,14.588-4.668c6.225,0,11.273,1.607,15.146,4.82
		c3.873,3.214,5.811,7.324,5.811,12.33h-9.438c0-2.57-1.092-4.786-3.273-6.646c-2.182-1.861-4.93-2.791-8.246-2.791
		c-3.416,0-6.088,0.744-8.016,2.232c-1.93,1.488-2.893,3.434-2.893,5.835c0,2.267,0.896,3.976,2.689,5.125
		c1.793,1.15,5.031,2.25,9.717,3.298c4.686,1.049,8.482,2.301,11.391,3.755c2.91,1.455,5.066,3.206,6.471,5.252
		c1.402,2.047,2.105,4.542,2.105,7.484c0,4.905-1.963,8.838-5.887,11.798s-9.016,4.439-15.273,4.439
		c-4.396,0-8.287-0.778-11.67-2.334s-6.031-3.729-7.941-6.521c-1.912-2.791-2.867-5.81-2.867-9.057h9.389
		c0.168,3.146,1.428,5.641,3.779,7.484s5.455,2.765,9.311,2.765c3.553,0,6.402-0.718,8.551-2.156
		C659.332,91.561,660.406,89.642,660.406,87.239z"/>
</g>
<g id="g8">
	<path id="path2" fill="#54C5F8" d="M52.28,98.198V55.631l-16.406-16.41l-0.002,45.628c-5.4-0.874-11.555-0.189-17.542,2.293
		c-13.774,5.712-21.442,18.773-17.13,29.176c4.313,10.401,18.977,14.204,32.75,8.493c9.292-3.854,15.808-11.052,17.737-18.521
		C52.076,104.787,52.28,101.686,52.28,98.198L52.28,98.198z"/>
	<polygon id="polygon4" fill="#29B6F6" points="35.872,0 35.875,39.221 52.28,55.631 52.28,16.408 	"/>
	<polygon id="polygon6" fill="#01579B" points="52.28,16.408 52.28,55.631 68.67,72.021 68.67,32.797 	"/>
	
		<linearGradient id="polygon11_1_" gradientUnits="userSpaceOnUse" x1="68.9067" y1="33.5293" x2="49.1038" y2="37.0211" gradientTransform="matrix(1 0 0 1 -0.1797 -0.4102)">
		<stop  offset="0" style="stop-color:#01579B;stop-opacity:0"/>
		<stop  offset="1" style="stop-color:#062649"/>
	</linearGradient>
	<polygon id="polygon11" fill="url(#polygon11_1_)" points="52.277,16.408 52.277,55.624 52.284,55.63 68.67,49.96 68.67,32.797 	
		"/>
</g>
</svg>
