<?xml version="1.0" encoding="utf-8"?>
<svg version="1.1" id="Ebene_1" xmlns="http://www.w3.org/2000/svg" xmlns:xlink="http://www.w3.org/1999/xlink" x="0px" y="0px"
	 width="278px" height="127.5px" viewBox="0 0 278 127.5" enable-background="new 0 0 278 127.5" xml:space="preserve">
<g>
	<path fill="#757575" d="M137.798,58.583h-21.516l-4.832,13.438h-6.984l19.611-51.356h5.925l19.647,51.356h-6.949L137.798,58.583z
		 M118.328,53.045h17.459l-8.748-24.021L118.328,53.045z"/>
	<path fill="#757575" d="M175.801,68.247c-2.54,2.987-6.267,4.479-11.182,4.479c-4.068,0-7.166-1.182-9.294-3.545
		c-2.128-2.362-3.204-5.86-3.228-10.493V33.857h6.525v24.655c0,5.784,2.351,8.677,7.055,8.677c4.985,0,8.3-1.857,9.947-5.573V33.857
		h6.525v38.164h-6.208L175.801,68.247z"/>
	<path fill="#757575" d="M188.011,52.622c0-5.855,1.387-10.564,4.162-14.127c2.774-3.563,6.407-5.344,10.899-5.344
		c4.467,0,8.007,1.529,10.617,4.586V17.844h6.525v54.178h-5.997L213.9,67.93c-2.61,3.198-6.243,4.797-10.899,4.797
		c-4.421,0-8.024-1.811-10.811-5.432c-2.787-3.621-4.18-8.348-4.18-14.18V52.622z M194.536,53.362c0,4.327,0.894,7.713,2.681,10.158
		c1.787,2.446,4.256,3.669,7.407,3.669c4.139,0,7.16-1.857,9.065-5.573v-17.53c-1.953-3.598-4.951-5.396-8.995-5.396
		c-3.198,0-5.691,1.234-7.478,3.703C195.429,44.862,194.536,48.519,194.536,53.362z"/>
	<path fill="#757575" d="M227.576,23.734c0-1.059,0.322-1.952,0.971-2.681c0.646-0.729,1.604-1.094,2.875-1.094
		c1.27,0,2.232,0.365,2.891,1.094s0.988,1.622,0.988,2.681c0,1.058-0.33,1.939-0.988,2.646c-0.658,0.705-1.621,1.058-2.891,1.058
		c-1.271,0-2.229-0.353-2.875-1.058C227.898,25.674,227.576,24.792,227.576,23.734z M234.631,72.021h-6.525V33.857h6.525V72.021z"/>
	<path fill="#757575" d="M240.49,52.587c0-3.739,0.734-7.102,2.203-10.088c1.471-2.986,3.516-5.291,6.139-6.914
		c2.621-1.622,5.613-2.434,8.977-2.434c5.195,0,9.4,1.799,12.609,5.396c3.209,3.599,4.814,8.384,4.814,14.356v0.458
		c0,3.716-0.711,7.049-2.135,10c-1.422,2.951-3.455,5.25-6.102,6.896c-2.645,1.646-5.684,2.469-9.117,2.469
		c-5.174,0-9.365-1.799-12.574-5.396c-3.211-3.598-4.814-8.359-4.814-14.285V52.587z M247.051,53.362
		c0,4.232,0.98,7.631,2.945,10.194c1.963,2.563,4.59,3.844,7.883,3.844c3.314,0,5.949-1.299,7.9-3.897
		c1.951-2.598,2.928-6.236,2.928-10.916c0-4.186-0.994-7.578-2.98-10.177c-1.986-2.598-4.627-3.897-7.918-3.897
		c-3.223,0-5.82,1.282-7.795,3.845C248.037,44.921,247.051,48.589,247.051,53.362z"/>
</g>
<g id="g8">
	<path id="path2" fill="#54C5F8" d="M54.03,98.198V55.631l-16.406-16.41l-0.002,45.628c-5.4-0.874-11.555-0.189-17.542,2.293
		c-13.774,5.712-21.442,18.773-17.13,29.176c4.313,10.401,18.977,14.204,32.75,8.493c9.292-3.854,15.808-11.052,17.737-18.521
		C53.826,104.787,54.03,101.686,54.03,98.198L54.03,98.198z"/>
	<polygon id="polygon4" fill="#29B6F6" points="37.622,0 37.625,39.221 54.03,55.631 54.03,16.408 	"/>
	<polygon id="polygon6" fill="#01579B" points="54.03,16.408 54.03,55.631 70.42,72.021 70.42,32.797 	"/>
	
		<linearGradient id="polygon11_1_" gradientUnits="userSpaceOnUse" x1="70.6567" y1="33.5293" x2="50.8538" y2="37.0211" gradientTransform="matrix(1 0 0 1 -0.1797 -0.4102)">
		<stop  offset="0" style="stop-color:#01579B;stop-opacity:0"/>
		<stop  offset="1" style="stop-color:#062649"/>
	</linearGradient>
	<polygon id="polygon11" fill="url(#polygon11_1_)" points="54.027,16.408 54.027,55.624 54.034,55.63 70.42,49.96 70.42,32.797 	
		"/>
</g>
<g>
	<path fill="#757575" d="M108.357,96.612v7.703h-2.595V84.638h7.257c2.153,0,3.84,0.55,5.062,1.648
		c1.221,1.1,1.831,2.555,1.831,4.365c0,1.911-0.597,3.382-1.791,4.413c-1.194,1.032-2.904,1.548-5.129,1.548H108.357z
		 M108.357,94.49h4.663c1.388,0,2.451-0.327,3.189-0.981s1.108-1.601,1.108-2.837c0-1.173-0.37-2.111-1.108-2.815
		s-1.752-1.07-3.041-1.097h-4.812V94.49z"/>
	<path fill="#757575" d="M135.016,102.193h9.325v2.122h-11.934V84.638h2.608V102.193z"/>
	<path fill="#757575" d="M168.511,99.166h-8.244l-1.852,5.149h-2.676l7.514-19.678h2.271l7.528,19.678h-2.662L168.511,99.166z
		 M161.051,97.044h6.69l-3.352-9.203L161.051,97.044z"/>
	<path fill="#757575" d="M188.906,94.517l5.136-9.879h2.946l-6.785,12.339v7.339h-2.595v-7.339l-6.785-12.339h2.973L188.906,94.517z
		"/>
	<path fill="#757575" d="M220.237,95.22h-8.528v6.974h9.906v2.122h-12.501V84.638h12.366v2.122h-9.771v6.338h8.528V95.22z"/>
	<path fill="#757575" d="M241.297,96.355h-4.623v7.96h-2.607V84.638h6.514c2.217,0,3.922,0.505,5.115,1.514s1.791,2.478,1.791,4.406
		c0,1.225-0.332,2.293-0.994,3.202c-0.662,0.91-1.582,1.591-2.764,2.041l4.623,8.353v0.162h-2.785L241.297,96.355z M236.674,94.233
		h3.988c1.287,0,2.313-0.334,3.074-1.002s1.141-1.562,1.141-2.681c0-1.219-0.361-2.152-1.088-2.803
		c-0.725-0.65-1.771-0.979-3.141-0.988h-3.975V94.233z"/>
	<path fill="#757575" d="M266.23,95.544c-2.225-0.64-3.844-1.426-4.857-2.358s-1.521-2.083-1.521-3.453
		c0-1.549,0.619-2.831,1.859-3.845c1.238-1.014,2.848-1.521,4.83-1.521c1.352,0,2.557,0.262,3.615,0.784s1.879,1.243,2.461,2.162
		c0.58,0.919,0.871,1.924,0.871,3.014h-2.607c0-1.193-0.379-2.131-1.137-2.814c-0.756-0.682-1.824-1.023-3.203-1.023
		c-1.279,0-2.277,0.282-2.992,0.847c-0.717,0.563-1.074,1.347-1.074,2.349c0,0.804,0.34,1.482,1.02,2.038
		c0.68,0.555,1.838,1.063,3.473,1.522c1.637,0.461,2.916,0.968,3.84,1.522c0.922,0.554,1.607,1.2,2.053,1.938
		c0.447,0.739,0.67,1.608,0.67,2.608c0,1.595-0.621,2.872-1.865,3.832c-1.244,0.959-2.906,1.439-4.986,1.439
		c-1.352,0-2.613-0.26-3.785-0.777s-2.074-1.228-2.709-2.129c-0.637-0.9-0.953-1.923-0.953-3.067h2.607
		c0,1.189,0.439,2.128,1.318,2.817s2.053,1.034,3.521,1.034c1.369,0,2.418-0.279,3.148-0.838s1.094-1.32,1.094-2.284
		s-0.338-1.71-1.014-2.236C269.23,96.578,268.006,96.058,266.23,95.544z"/>
</g>
</svg>
